<?xml version="1.0" encoding="UTF-8" standalone="no"?>
<!-- Creator: CorelDRAW 2019 (64-Bit) -->

<svg
   xml:space="preserve"
   width="120.2608mm"
   height="97.395447mm"
   version="1.1"
   style="clip-rule:evenodd;fill-rule:evenodd;image-rendering:optimizeQuality;shape-rendering:geometricPrecision;text-rendering:geometricPrecision"
   viewBox="0 0 12025.37 9738.9801"
   id="svg10"
   sodipodi:docname="axera-logo.svg"
   xmlns:inkscape="http://www.inkscape.org/namespaces/inkscape"
   xmlns:sodipodi="http://sodipodi.sourceforge.net/DTD/sodipodi-0.dtd"
   xmlns="http://www.w3.org/2000/svg"
   xmlns:svg="http://www.w3.org/2000/svg"><sodipodi:namedview
   id="namedview10"
   pagecolor="#ffffff"
   bordercolor="#000000"
   borderopacity="0.25"
   inkscape:showpageshadow="2"
   inkscape:pageopacity="0.0"
   inkscape:pagecheckerboard="0"
   inkscape:deskcolor="#d1d1d1"
   inkscape:document-units="mm" />&#10; <defs
   id="defs1"><style
     type="text/css"
     id="style1">&#10;   <![CDATA[
    .fil3 {fill:#F9B33B;fill-rule:nonzero}
    .fil2 {fill:#EB6420;fill-rule:nonzero}
    .fil1 {fill:#054272;fill-rule:nonzero}
    .fil0 {fill:#054272;fill-rule:nonzero}
   ]]>&#10;  </style></defs>&#10; <g
   id="Livello_x0020_1"
   inkscape:label="Livello 1"
   inkscape:groupmode="layer"
   transform="translate(-3066.9897,-4060.6616)">&#10;  <metadata
   id="CorelCorpID_0Corel-Layer" />&#10;  &#10;  <g
   id="g10"
   transform="translate(-831.12751,4060.6516)">&#10;   <path
   class="fil2"
   d="m 9945.32,2605.25 c 589.75,-969.17 1495.32,-403.92 1495.32,-403.92 l -362.57,-627.99 -465.94,-807.1 C 10022.84,-255.4 8548.34,-255.4 7958.37,766.24 L 4105.84,7440.5 c -589.89,1021.72 146.71,2298.49 1325.93,2298.49 198.34,0 410.92,-27.58 622.17,-74.81 L 9945.31,2605.26 Z"
   id="path7" />&#10;   <path
   class="fil1"
   d="m 12989.26,4396.23 1448.88,2456.47 c 0,0 1147.28,-29.29 1485.35,187.04 0,0 -953.3,-980.32 -1595.59,-1352.17 0,0 216.37,-385.38 601.75,-534.11 0,0 -439.45,-419.21 -1940.39,-757.23 z"
   id="path8" />&#10;   <path
   class="fil3"
   d="m 14514.27,7412.36 c -162.25,-202.83 -417.15,-605.87 -417.15,-605.87 L 11617.98,2509.52 c -104.57,-44.79 -210.27,-89.26 -315.76,-126.69 l 2045.37,4149.85 852.57,1276.3 c 0,0 175.85,21.78 235.47,50.74 124.64,60.58 293.03,264.92 -36.3,566.8 -405.64,371.85 -1129.09,730.18 -1656.39,966.79 -527.34,236.61 -904.47,-196.16 -707.02,-528.5 210.08,-353.79 578.56,-647.9 916.62,-735.79 338,-87.88 554.4,33.82 466.47,223.13 -87.89,189.3 -243.39,310.97 -561.12,317.74 -182.22,3.86 -219.75,45.63 -218.97,63.92 0.93,21 44.37,45.54 54.63,50.33 397.57,186.63 755,67.3 989.12,-249.45 172.44,-233.28 66.27,-547.7 -36.23,-723.26 -45.94,-78.72 -210.79,-383.6 -210.79,-383.6 l -175.96,-394.87 -2255.87,-4729.99 c -241.92,-39.21 -475.3,-0.27 -688.17,206.11 -203.17,196.93 -763.52,1297.29 -867.57,1501.75 l 1437.28,2809.9 c 0,0 247.06,610.4 311.54,798.62 122.65,357.96 273.1,911.84 351.44,1292.2 175.29,853.72 534.06,853.19 964.7,806.29 501.96,-54.67 1297.96,-512.96 1758.36,-825.83 165.9,-112.75 445.36,-362.23 489.7,-407.91 266.94,-275.04 285.11,-406.79 -246.85,-1071.75 z"
   id="path9" />&#10;   <path
   class="fil1"
   d="m 13545.8,6582.43 v -0.7 C 12830.53,6300 11946.53,6576.56 10995.38,7063.17 10031.87,7555.54 9000,8263.72 8002.25,8827.23 l -0.63,0.63 c -911.72,515.67 -1795.68,911.12 -2569.85,911.12 -1179.22,0 -1915.82,-1276.77 -1325.85,-2298.41 0,0 1450.61,-2513.01 1451.25,-2513.68 l 325.06,-562.84 c -403.26,732.11 -940.86,2319.75 658.41,2104.66 383.82,-51.74 829.1,-235.92 1302.79,-482.75 95.54,-49.77 290.09,-157.01 290.09,-157.01 552.42,-307.56 1133.31,-677.82 1691.65,-1007.34 1240.65,-731.52 2378.54,-1259.42 2872.22,-442.61 3.86,4.79 946.05,1642.1 1426.19,2473.69 0,0 -227.22,-137.47 -577.77,-270.25 z"
   id="path10" />&#10;  </g>&#10; </g>&#10;</svg>
